<svg xmlns="http://www.w3.org/2000/svg" viewBox="0 0 1200 750" fill="none" role="img">
  <rect width="1200" height="750" fill="#F4F3F0"/>
  <rect x="1.0" y="1.0" width="1198.0" height="748.0" rx="0" fill="none" stroke="#12100E" stroke-width="2" stroke-opacity="0.1"/>
  <path d="M 90 375 L 1110 375" fill="none" stroke="#12100E" stroke-width="1" stroke-opacity="0.12" stroke-linecap="round" stroke-linejoin="round" stroke-dasharray="2 8"/>
  <path d="M 90.0 361.0 C 92.3 361.0 92.3 361.0 94.7 361.0 C 97.0 361.0 97.0 360.9 99.3 360.9 C 101.6 360.9 101.6 360.9 104.0 360.9 C 106.3 360.9 106.3 360.9 108.6 360.9 C 110.9 360.9 110.9 360.9 113.2 360.9 C 115.6 360.9 115.6 360.9 117.9 360.9 C 120.2 360.9 120.2 360.9 122.6 360.9 C 124.9 360.9 124.9 360.9 127.2 360.9 C 129.5 360.9 129.5 360.9 131.8 360.9 C 134.2 360.9 134.2 360.9 136.5 360.9 C 138.8 360.9 138.8 360.9 141.2 360.9 C 143.5 360.9 143.5 360.8 145.8 360.8 C 148.1 360.8 148.1 360.8 150.4 360.8 C 152.8 360.8 152.8 360.8 155.1 360.8 C 157.4 360.8 157.4 360.8 159.8 360.8 C 162.1 360.8 162.1 360.7 164.4 360.7 C 166.7 360.7 166.7 360.7 169.1 360.7 C 171.4 360.7 171.4 360.7 173.7 360.7 C 176.0 360.7 176.0 360.6 178.4 360.6 C 180.7 360.6 180.7 360.6 183.0 360.6 C 185.3 360.6 185.3 360.5 187.7 360.5 C 190.0 360.5 190.0 360.4 192.3 360.4 C 194.6 360.4 194.6 360.4 196.9 360.4 C 199.3 360.4 199.3 360.3 201.6 360.3 C 203.9 360.3 203.9 360.2 206.2 360.2 C 208.6 360.2 208.6 360.0 210.9 360.0 C 213.2 360.0 213.2 359.9 215.6 359.9 C 217.9 359.9 217.9 359.8 220.2 359.8 C 222.5 359.8 222.5 359.6 224.9 359.6 C 227.2 359.6 227.2 359.4 229.5 359.4 C 231.8 359.4 231.8 359.1 234.2 359.1 C 236.5 359.1 236.5 358.9 238.8 358.9 C 241.1 358.9 241.1 358.5 243.5 358.5 C 245.8 358.5 245.8 358.2 248.1 358.2 C 250.4 358.2 250.4 357.8 252.8 357.8 C 255.1 357.8 255.1 357.3 257.4 357.3 C 259.7 357.3 259.7 356.8 262.1 356.8 C 264.4 356.8 264.4 356.2 266.7 356.2 C 269.0 356.2 269.0 355.5 271.4 355.5 C 273.7 355.5 273.7 354.7 276.0 354.7 C 278.3 354.7 278.3 353.8 280.6 353.8 C 283.0 353.8 283.0 352.8 285.3 352.8 C 287.6 352.8 287.6 351.7 290.0 351.7 C 292.3 351.7 292.3 350.5 294.6 350.5 C 296.9 350.5 296.9 349.1 299.2 349.1 C 301.6 349.1 301.6 347.5 303.9 347.5 C 306.2 347.5 306.2 345.8 308.6 345.8 C 310.9 345.8 310.9 343.8 313.2 343.8 C 315.5 343.8 315.5 341.7 317.9 341.7 C 320.2 341.7 320.2 339.3 322.5 339.3 C 324.8 339.3 324.8 336.7 327.1 336.7 C 329.5 336.7 329.5 333.8 331.8 333.8 C 334.1 333.8 334.1 330.6 336.5 330.6 C 338.8 330.6 338.8 327.2 341.1 327.2 C 343.4 327.2 343.4 323.4 345.8 323.4 C 348.1 323.4 348.1 319.4 350.4 319.4 C 352.7 319.4 352.7 315.0 355.1 315.0 C 357.4 315.0 357.4 310.3 359.7 310.3 C 362.0 310.3 362.0 305.2 364.4 305.2 C 366.7 305.2 366.7 299.8 369.0 299.8 C 371.3 299.8 371.3 294.1 373.7 294.1 C 376.0 294.1 376.0 287.9 378.3 287.9 C 380.6 287.9 380.6 281.5 383.0 281.5 C 385.3 281.5 385.3 274.7 387.6 274.7 C 389.9 274.7 389.9 267.5 392.2 267.5 C 394.6 267.5 394.6 260.0 396.9 260.0 C 399.2 260.0 399.2 252.2 401.6 252.2 C 403.9 252.2 403.9 244.1 406.2 244.1 C 408.5 244.1 408.5 235.8 410.9 235.8 C 413.2 235.8 413.2 227.2 415.5 227.2 C 417.8 227.2 417.8 218.5 420.2 218.5 C 422.5 218.5 422.5 209.5 424.8 209.5 C 427.1 209.5 427.1 200.4 429.5 200.4 C 431.8 200.4 431.8 191.3 434.1 191.3 C 436.4 191.3 436.4 182.1 438.8 182.1 C 441.1 182.1 441.1 173.0 443.4 173.0 C 445.7 173.0 445.7 163.9 448.1 163.9 C 450.4 163.9 450.4 154.9 452.7 154.9 C 455.0 154.9 455.0 146.1 457.4 146.1 C 459.7 146.1 459.7 137.6 462.0 137.6 C 464.3 137.6 464.3 129.3 466.7 129.3 C 469.0 129.3 469.0 121.4 471.3 121.4 C 473.6 121.4 473.6 113.9 476.0 113.9 C 478.3 113.9 478.3 106.8 480.6 106.8 C 482.9 106.8 482.9 100.2 485.3 100.2 C 487.6 100.2 487.6 94.2 489.9 94.2 C 492.2 94.2 492.2 88.7 494.6 88.7 C 496.9 88.7 496.9 83.9 499.2 83.9 C 501.5 83.9 501.5 79.7 503.9 79.7 C 506.2 79.7 506.2 76.1 508.5 76.1 C 510.8 76.1 510.8 73.3 513.2 73.3 C 515.5 73.3 515.5 71.2 517.8 71.2 C 520.1 71.2 520.1 69.8 522.5 69.8 C 524.8 69.8 524.8 69.1 527.1 69.1 C 529.4 69.1 529.4 69.2 531.8 69.2 C 534.1 69.2 534.1 69.9 536.4 69.9 C 538.7 69.9 538.7 71.3 541.0 71.3 C 543.4 71.3 543.4 73.4 545.7 73.4 C 548.0 73.4 548.0 76.1 550.4 76.1 C 552.7 76.1 552.7 79.4 555.0 79.4 C 557.3 79.4 557.3 83.2 559.7 83.2 C 562.0 83.2 562.0 87.6 564.3 87.6 C 566.6 87.6 566.6 92.4 569.0 92.4 C 571.3 92.4 571.3 97.7 573.6 97.7 C 575.9 97.7 575.9 103.3 578.2 103.3 C 580.6 103.3 580.6 109.3 582.9 109.3 C 585.2 109.3 585.2 115.5 587.5 115.5 C 589.9 115.5 589.9 121.9 592.2 121.9 C 594.5 121.9 594.5 128.5 596.9 128.5 C 599.2 128.5 599.2 135.2 601.5 135.2 C 603.8 135.2 603.8 142.0 606.2 142.0 C 608.5 142.0 608.5 148.8 610.8 148.8 C 613.1 148.8 613.1 155.6 615.5 155.6 C 617.8 155.6 617.8 162.3 620.1 162.3 C 622.4 162.3 622.4 168.9 624.8 168.9 C 627.1 168.9 627.1 175.3 629.4 175.3 C 631.7 175.3 631.7 181.6 634.1 181.6 C 636.4 181.6 636.4 187.7 638.7 187.7 C 641.0 187.7 641.0 193.6 643.4 193.6 C 645.7 193.6 645.7 199.2 648.0 199.2 C 650.3 199.2 650.3 204.6 652.7 204.6 C 655.0 204.6 655.0 209.8 657.3 209.8 C 659.6 209.8 659.6 214.7 662.0 214.7 C 664.3 214.7 664.3 219.3 666.6 219.3 C 668.9 219.3 668.9 223.6 671.2 223.6 C 673.6 223.6 673.6 227.7 675.9 227.7 C 678.2 227.7 678.2 231.5 680.6 231.5 C 682.9 231.5 682.9 235.1 685.2 235.1 C 687.5 235.1 687.5 238.4 689.9 238.4 C 692.2 238.4 692.2 241.5 694.5 241.5 C 696.8 241.5 696.8 244.3 699.2 244.3 C 701.5 244.3 701.5 247.0 703.8 247.0 C 706.1 247.0 706.1 249.5 708.5 249.5 C 710.8 249.5 710.8 251.8 713.1 251.8 C 715.4 251.8 715.4 253.9 717.8 253.9 C 720.1 253.9 720.1 255.9 722.4 255.9 C 724.7 255.9 724.7 257.7 727.1 257.7 C 729.4 257.7 729.4 259.5 731.7 259.5 C 734.0 259.5 734.0 261.1 736.4 261.1 C 738.7 261.1 738.7 262.7 741.0 262.7 C 743.3 262.7 743.3 264.1 745.7 264.1 C 748.0 264.1 748.0 265.5 750.3 265.5 C 752.6 265.5 752.6 266.9 755.0 266.9 C 757.3 266.9 757.3 268.2 759.6 268.2 C 761.9 268.2 761.9 269.5 764.2 269.5 C 766.6 269.5 766.6 270.8 768.9 270.8 C 771.2 270.8 771.2 272.0 773.6 272.0 C 775.9 272.0 775.9 273.3 778.2 273.3 C 780.5 273.3 780.5 274.5 782.9 274.5 C 785.2 274.5 785.2 275.8 787.5 275.8 C 789.8 275.8 789.8 277.0 792.2 277.0 C 794.5 277.0 794.5 278.3 796.8 278.3 C 799.1 278.3 799.1 279.6 801.5 279.6 C 803.8 279.6 803.8 280.9 806.1 280.9 C 808.4 280.9 808.4 282.2 810.8 282.2 C 813.1 282.2 813.1 283.6 815.4 283.6 C 817.7 283.6 817.7 284.9 820.1 284.9 C 822.4 284.9 822.4 286.3 824.7 286.3 C 827.0 286.3 827.0 287.8 829.4 287.8 C 831.7 287.8 831.7 289.2 834.0 289.2 C 836.3 289.2 836.3 290.7 838.7 290.7 C 841.0 290.7 841.0 292.2 843.3 292.2 C 845.6 292.2 845.6 293.7 848.0 293.7 C 850.3 293.7 850.3 295.2 852.6 295.2 C 854.9 295.2 854.9 296.7 857.3 296.7 C 859.6 296.7 859.6 298.3 861.9 298.3 C 864.2 298.3 864.2 299.8 866.6 299.8 C 868.9 299.8 868.9 301.4 871.2 301.4 C 873.5 301.4 873.5 302.9 875.9 302.9 C 878.2 302.9 878.2 304.5 880.5 304.5 C 882.8 304.5 882.8 306.1 885.2 306.1 C 887.5 306.1 887.5 307.7 889.8 307.7 C 892.1 307.7 892.1 309.2 894.5 309.2 C 896.8 309.2 896.8 310.8 899.1 310.8 C 901.4 310.8 901.4 312.4 903.8 312.4 C 906.1 312.4 906.1 313.9 908.4 313.9 C 910.7 313.9 910.7 315.4 913.1 315.4 C 915.4 315.4 915.4 317.0 917.7 317.0 C 920.0 317.0 920.0 318.5 922.4 318.5 C 924.7 318.5 924.7 320.0 927.0 320.0 C 929.3 320.0 929.3 321.4 931.7 321.4 C 934.0 321.4 934.0 322.9 936.3 322.9 C 938.6 322.9 938.6 324.3 941.0 324.3 C 943.3 324.3 943.3 325.7 945.6 325.7 C 947.9 325.7 947.9 327.1 950.3 327.1 C 952.6 327.1 952.6 328.4 954.9 328.4 C 957.2 328.4 957.2 329.8 959.6 329.8 C 961.9 329.8 961.9 331.0 964.2 331.0 C 966.5 331.0 966.5 332.3 968.9 332.3 C 971.2 332.3 971.2 333.5 973.5 333.5 C 975.8 333.5 975.8 334.7 978.2 334.7 C 980.5 334.7 980.5 335.9 982.8 335.9 C 985.1 335.9 985.1 337.0 987.5 337.0 C 989.8 337.0 989.8 338.2 992.1 338.2 C 994.4 338.2 994.4 339.2 996.8 339.2 C 999.1 339.2 999.1 340.3 1001.4 340.3 C 1003.7 340.3 1003.7 341.3 1006.1 341.3 C 1008.4 341.3 1008.4 342.2 1010.7 342.2 C 1013.0 342.2 1013.0 343.2 1015.4 343.2 C 1017.7 343.2 1017.7 344.1 1020.0 344.1 C 1022.3 344.1 1022.3 345.0 1024.7 345.0 C 1027.0 345.0 1027.0 345.8 1029.3 345.8 C 1031.6 345.8 1031.6 346.6 1034.0 346.6 C 1036.3 346.6 1036.3 347.4 1038.6 347.4 C 1040.9 347.4 1040.9 348.1 1043.2 348.1 C 1045.6 348.1 1045.6 348.8 1047.9 348.8 C 1050.2 348.8 1050.2 349.5 1052.6 349.5 C 1054.9 349.5 1054.9 350.2 1057.2 350.2 C 1059.5 350.2 1059.5 350.8 1061.8 350.8 C 1064.2 350.8 1064.2 351.4 1066.5 351.4 C 1068.8 351.4 1068.8 352.0 1071.2 352.0 C 1073.5 352.0 1073.5 352.5 1075.8 352.5 C 1078.1 352.5 1078.1 353.0 1080.5 353.0 C 1082.8 353.0 1082.8 353.5 1085.1 353.5 C 1087.4 353.5 1087.4 354.0 1089.8 354.0 C 1092.1 354.0 1092.1 354.4 1094.4 354.4 C 1096.7 354.4 1096.7 354.9 1099.1 354.9 C 1101.4 354.9 1101.4 355.3 1103.7 355.3 C 1106.0 355.3 1106.0 355.6 1108.3 355.6 C 1110.7 355.6 1110.7 356.0 1113.0 356.0" fill="none" stroke="#FF4B2B" stroke-width="1.6" stroke-opacity="0.22" stroke-linecap="round" stroke-linejoin="round"/>
  <path d="M 90.0 389.0 C 92.3 389.0 92.3 389.0 94.7 389.0 C 97.0 389.0 97.0 389.1 99.3 389.1 C 101.6 389.1 101.6 389.1 104.0 389.1 C 106.3 389.1 106.3 389.1 108.6 389.1 C 110.9 389.1 110.9 389.1 113.2 389.1 C 115.6 389.1 115.6 389.1 117.9 389.1 C 120.2 389.1 120.2 389.1 122.6 389.1 C 124.9 389.1 124.9 389.1 127.2 389.1 C 129.5 389.1 129.5 389.1 131.8 389.1 C 134.2 389.1 134.2 389.1 136.5 389.1 C 138.8 389.1 138.8 389.1 141.2 389.1 C 143.5 389.1 143.5 389.2 145.8 389.2 C 148.1 389.2 148.1 389.2 150.4 389.2 C 152.8 389.2 152.8 389.2 155.1 389.2 C 157.4 389.2 157.4 389.2 159.8 389.2 C 162.1 389.2 162.1 389.3 164.4 389.3 C 166.7 389.3 166.7 389.3 169.1 389.3 C 171.4 389.3 171.4 389.3 173.7 389.3 C 176.0 389.3 176.0 389.4 178.4 389.4 C 180.7 389.4 180.7 389.4 183.0 389.4 C 185.3 389.4 185.3 389.5 187.7 389.5 C 190.0 389.5 190.0 389.6 192.3 389.6 C 194.6 389.6 194.6 389.6 196.9 389.6 C 199.3 389.6 199.3 389.7 201.6 389.7 C 203.9 389.7 203.9 389.8 206.2 389.8 C 208.6 389.8 208.6 390.0 210.9 390.0 C 213.2 390.0 213.2 390.1 215.6 390.1 C 217.9 390.1 217.9 390.2 220.2 390.2 C 222.5 390.2 222.5 390.4 224.9 390.4 C 227.2 390.4 227.2 390.6 229.5 390.6 C 231.8 390.6 231.8 390.9 234.2 390.9 C 236.5 390.9 236.5 391.1 238.8 391.1 C 241.1 391.1 241.1 391.5 243.5 391.5 C 245.8 391.5 245.8 391.8 248.1 391.8 C 250.4 391.8 250.4 392.2 252.8 392.2 C 255.1 392.2 255.1 392.7 257.4 392.7 C 259.7 392.7 259.7 393.2 262.1 393.2 C 264.4 393.2 264.4 393.8 266.7 393.8 C 269.0 393.8 269.0 394.5 271.4 394.5 C 273.7 394.5 273.7 395.3 276.0 395.3 C 278.3 395.3 278.3 396.2 280.6 396.2 C 283.0 396.2 283.0 397.2 285.3 397.2 C 287.6 397.2 287.6 398.3 290.0 398.3 C 292.3 398.3 292.3 399.5 294.6 399.5 C 296.9 399.5 296.9 400.9 299.2 400.9 C 301.6 400.9 301.6 402.5 303.9 402.5 C 306.2 402.5 306.2 404.2 308.6 404.2 C 310.9 404.2 310.9 406.2 313.2 406.2 C 315.5 406.2 315.5 408.3 317.9 408.3 C 320.2 408.3 320.2 410.7 322.5 410.7 C 324.8 410.7 324.8 413.3 327.1 413.3 C 329.5 413.3 329.5 416.2 331.8 416.2 C 334.1 416.2 334.1 419.4 336.5 419.4 C 338.8 419.4 338.8 422.8 341.1 422.8 C 343.4 422.8 343.4 426.6 345.8 426.6 C 348.1 426.6 348.1 430.6 350.4 430.6 C 352.7 430.6 352.7 435.0 355.1 435.0 C 357.4 435.0 357.4 439.7 359.7 439.7 C 362.0 439.7 362.0 444.8 364.4 444.8 C 366.7 444.8 366.7 450.2 369.0 450.2 C 371.3 450.2 371.3 455.9 373.7 455.9 C 376.0 455.9 376.0 462.1 378.3 462.1 C 380.6 462.1 380.6 468.5 383.0 468.5 C 385.3 468.5 385.3 475.3 387.6 475.3 C 389.9 475.3 389.9 482.5 392.2 482.5 C 394.6 482.5 394.6 490.0 396.9 490.0 C 399.2 490.0 399.2 497.8 401.6 497.8 C 403.9 497.8 403.9 505.9 406.2 505.9 C 408.5 505.9 408.5 514.2 410.9 514.2 C 413.2 514.2 413.2 522.8 415.5 522.8 C 417.8 522.8 417.8 531.5 420.2 531.5 C 422.5 531.5 422.5 540.5 424.8 540.5 C 427.1 540.5 427.1 549.6 429.5 549.6 C 431.8 549.6 431.8 558.7 434.1 558.7 C 436.4 558.7 436.4 567.9 438.8 567.9 C 441.1 567.9 441.1 577.0 443.4 577.0 C 445.7 577.0 445.7 586.1 448.1 586.1 C 450.4 586.1 450.4 595.1 452.7 595.1 C 455.0 595.1 455.0 603.9 457.4 603.9 C 459.7 603.9 459.7 612.4 462.0 612.4 C 464.3 612.4 464.3 620.7 466.7 620.7 C 469.0 620.7 469.0 628.6 471.3 628.6 C 473.6 628.6 473.6 636.1 476.0 636.1 C 478.3 636.1 478.3 643.2 480.6 643.2 C 482.9 643.2 482.9 649.8 485.3 649.8 C 487.6 649.8 487.6 655.8 489.9 655.8 C 492.2 655.8 492.2 661.3 494.6 661.3 C 496.9 661.3 496.9 666.1 499.2 666.1 C 501.5 666.1 501.5 670.3 503.9 670.3 C 506.2 670.3 506.2 673.9 508.5 673.9 C 510.8 673.9 510.8 676.7 513.2 676.7 C 515.5 676.7 515.5 678.8 517.8 678.8 C 520.1 678.8 520.1 680.2 522.5 680.2 C 524.8 680.2 524.8 680.9 527.1 680.9 C 529.4 680.9 529.4 680.8 531.8 680.8 C 534.1 680.8 534.1 680.1 536.4 680.1 C 538.7 680.1 538.7 678.7 541.0 678.7 C 543.4 678.7 543.4 676.6 545.7 676.6 C 548.0 676.6 548.0 673.9 550.4 673.9 C 552.7 673.9 552.7 670.6 555.0 670.6 C 557.3 670.6 557.3 666.8 559.7 666.8 C 562.0 666.8 562.0 662.4 564.3 662.4 C 566.6 662.4 566.6 657.6 569.0 657.6 C 571.3 657.6 571.3 652.3 573.6 652.3 C 575.9 652.3 575.9 646.7 578.2 646.7 C 580.6 646.7 580.6 640.7 582.9 640.7 C 585.2 640.7 585.2 634.5 587.5 634.5 C 589.9 634.5 589.9 628.1 592.2 628.1 C 594.5 628.1 594.5 621.5 596.9 621.5 C 599.2 621.5 599.2 614.8 601.5 614.8 C 603.8 614.8 603.8 608.0 606.2 608.0 C 608.5 608.0 608.5 601.2 610.8 601.2 C 613.1 601.2 613.1 594.4 615.5 594.4 C 617.8 594.4 617.8 587.7 620.1 587.7 C 622.4 587.7 622.4 581.1 624.8 581.1 C 627.1 581.1 627.1 574.7 629.4 574.7 C 631.7 574.7 631.7 568.4 634.1 568.4 C 636.4 568.4 636.4 562.3 638.7 562.3 C 641.0 562.3 641.0 556.4 643.4 556.4 C 645.7 556.4 645.7 550.8 648.0 550.8 C 650.3 550.8 650.3 545.4 652.7 545.4 C 655.0 545.4 655.0 540.2 657.3 540.2 C 659.6 540.2 659.6 535.3 662.0 535.3 C 664.3 535.3 664.3 530.7 666.6 530.7 C 668.9 530.7 668.9 526.4 671.2 526.4 C 673.6 526.4 673.6 522.3 675.9 522.3 C 678.2 522.3 678.2 518.5 680.6 518.5 C 682.9 518.5 682.9 514.9 685.2 514.9 C 687.5 514.9 687.5 511.6 689.9 511.6 C 692.2 511.6 692.2 508.5 694.5 508.5 C 696.8 508.5 696.8 505.7 699.2 505.7 C 701.5 505.7 701.5 503.0 703.8 503.0 C 706.1 503.0 706.1 500.5 708.5 500.5 C 710.8 500.5 710.8 498.2 713.1 498.2 C 715.4 498.2 715.4 496.1 717.8 496.1 C 720.1 496.1 720.1 494.1 722.4 494.1 C 724.7 494.1 724.7 492.3 727.1 492.3 C 729.4 492.3 729.4 490.5 731.7 490.5 C 734.0 490.5 734.0 488.9 736.4 488.9 C 738.7 488.9 738.7 487.3 741.0 487.3 C 743.3 487.3 743.3 485.9 745.7 485.9 C 748.0 485.9 748.0 484.5 750.3 484.5 C 752.6 484.5 752.6 483.1 755.0 483.1 C 757.3 483.1 757.3 481.8 759.6 481.8 C 761.9 481.8 761.9 480.5 764.2 480.5 C 766.6 480.5 766.6 479.2 768.9 479.2 C 771.2 479.2 771.2 478.0 773.6 478.0 C 775.9 478.0 775.9 476.7 778.2 476.7 C 780.5 476.7 780.5 475.5 782.9 475.5 C 785.2 475.5 785.2 474.2 787.5 474.2 C 789.8 474.2 789.8 473.0 792.2 473.0 C 794.5 473.0 794.5 471.7 796.8 471.7 C 799.1 471.7 799.1 470.4 801.5 470.4 C 803.8 470.4 803.8 469.1 806.1 469.1 C 808.4 469.1 808.4 467.8 810.8 467.8 C 813.1 467.8 813.1 466.4 815.4 466.4 C 817.7 466.4 817.7 465.1 820.1 465.1 C 822.4 465.1 822.4 463.7 824.7 463.7 C 827.0 463.7 827.0 462.2 829.4 462.2 C 831.7 462.2 831.7 460.8 834.0 460.8 C 836.3 460.8 836.3 459.3 838.7 459.3 C 841.0 459.3 841.0 457.8 843.3 457.8 C 845.6 457.8 845.6 456.3 848.0 456.3 C 850.3 456.3 850.3 454.8 852.6 454.8 C 854.9 454.8 854.9 453.3 857.3 453.3 C 859.6 453.3 859.6 451.7 861.9 451.7 C 864.2 451.7 864.2 450.2 866.6 450.2 C 868.9 450.2 868.9 448.6 871.2 448.6 C 873.5 448.6 873.5 447.1 875.9 447.1 C 878.2 447.1 878.2 445.5 880.5 445.5 C 882.8 445.5 882.8 443.9 885.2 443.9 C 887.5 443.9 887.5 442.3 889.8 442.3 C 892.1 442.3 892.1 440.8 894.5 440.8 C 896.8 440.8 896.8 439.2 899.1 439.2 C 901.4 439.2 901.4 437.6 903.8 437.6 C 906.1 437.6 906.1 436.1 908.4 436.1 C 910.7 436.1 910.7 434.6 913.1 434.6 C 915.4 434.6 915.4 433.0 917.7 433.0 C 920.0 433.0 920.0 431.5 922.4 431.5 C 924.7 431.5 924.7 430.0 927.0 430.0 C 929.3 430.0 929.3 428.6 931.7 428.6 C 934.0 428.6 934.0 427.1 936.3 427.1 C 938.6 427.1 938.6 425.7 941.0 425.7 C 943.3 425.7 943.3 424.3 945.6 424.3 C 947.9 424.3 947.9 422.9 950.3 422.9 C 952.6 422.9 952.6 421.6 954.9 421.6 C 957.2 421.6 957.2 420.2 959.6 420.2 C 961.9 420.2 961.9 419.0 964.2 419.0 C 966.5 419.0 966.5 417.7 968.9 417.7 C 971.2 417.7 971.2 416.5 973.5 416.5 C 975.8 416.5 975.8 415.3 978.2 415.3 C 980.5 415.3 980.5 414.1 982.8 414.1 C 985.1 414.1 985.1 413.0 987.5 413.0 C 989.8 413.0 989.8 411.8 992.1 411.8 C 994.4 411.8 994.4 410.8 996.8 410.8 C 999.1 410.8 999.1 409.7 1001.4 409.7 C 1003.7 409.7 1003.7 408.7 1006.1 408.7 C 1008.4 408.7 1008.4 407.8 1010.7 407.8 C 1013.0 407.8 1013.0 406.8 1015.4 406.8 C 1017.7 406.8 1017.7 405.9 1020.0 405.9 C 1022.3 405.9 1022.3 405.0 1024.7 405.0 C 1027.0 405.0 1027.0 404.2 1029.3 404.2 C 1031.6 404.2 1031.6 403.4 1034.0 403.4 C 1036.3 403.4 1036.3 402.6 1038.6 402.6 C 1040.9 402.6 1040.9 401.9 1043.2 401.9 C 1045.6 401.9 1045.6 401.2 1047.9 401.2 C 1050.2 401.2 1050.2 400.5 1052.6 400.5 C 1054.9 400.5 1054.9 399.8 1057.2 399.8 C 1059.5 399.8 1059.5 399.2 1061.8 399.2 C 1064.2 399.2 1064.2 398.6 1066.5 398.6 C 1068.8 398.6 1068.8 398.0 1071.2 398.0 C 1073.5 398.0 1073.5 397.5 1075.8 397.5 C 1078.1 397.5 1078.1 397.0 1080.5 397.0 C 1082.8 397.0 1082.8 396.5 1085.1 396.5 C 1087.4 396.5 1087.4 396.0 1089.8 396.0 C 1092.1 396.0 1092.1 395.6 1094.4 395.6 C 1096.7 395.6 1096.7 395.1 1099.1 395.1 C 1101.4 395.1 1101.4 394.7 1103.7 394.7 C 1106.0 394.7 1106.0 394.4 1108.3 394.4 C 1110.7 394.4 1110.7 394.0 1113.0 394.0" fill="none" stroke="#FF4B2B" stroke-width="1.6" stroke-opacity="0.22" stroke-linecap="round" stroke-linejoin="round"/>
  <path d="M 90.0 378.1 L 94.7 366.5 L 99.3 364.2 L 104.0 362.5 L 108.6 368.4 L 113.2 383.6 L 117.9 391.1 L 122.6 383.6 L 127.2 387.2 L 131.8 380.0 L 136.5 362.6 L 141.2 363.4 L 145.8 358.9 L 150.4 368.5 L 155.1 374.9 L 159.8 388.4 L 164.4 386.2 L 169.1 381.2 L 173.7 378.5 L 178.4 367.2 L 183.0 361.5 L 187.7 367.4 L 192.3 363.4 L 196.9 373.6 L 201.6 385.5 L 206.2 393.6 L 210.9 382.7 L 215.6 381.1 L 220.2 369.1 L 224.9 359.4 L 229.5 358.4 L 234.2 359.2 L 238.8 373.8 L 243.5 378.6 L 248.1 389.7 L 252.8 384.6 L 257.4 379.3 L 262.1 378.3 L 266.7 367.5 L 271.4 361.0 L 276.0 354.0 L 280.6 369.8 L 285.3 380.5 L 290.0 395.5 L 294.6 396.7 L 299.2 392.0 L 303.9 378.1 L 308.6 358.5 L 313.2 346.9 L 317.9 342.8 L 322.5 358.4 L 327.1 377.2 L 331.8 399.7 L 336.5 409.0 L 341.1 406.1 L 345.8 388.2 L 350.4 347.4 L 355.1 319.8 L 359.7 314.1 L 364.4 338.0 L 369.0 377.1 L 373.7 428.1 L 378.3 448.6 L 383.0 446.2 L 387.6 408.2 L 392.2 348.3 L 396.9 282.7 L 401.6 259.5 L 406.2 298.8 L 410.9 361.6 L 415.5 451.5 L 420.2 514.4 L 424.8 514.9 L 429.5 446.1 L 434.1 339.5 L 438.8 247.7 L 443.4 191.8 L 448.1 230.8 L 452.7 328.1 L 457.4 467.8 L 462.0 564.4 L 466.7 583.5 L 471.3 511.2 L 476.0 359.1 L 480.6 217.4 L 485.3 136.1 L 489.9 154.1 L 494.6 286.9 L 499.2 458.5 L 503.9 598.6 L 508.5 641.2 L 513.2 571.3 L 517.8 409.0 L 522.5 220.7 L 527.1 115.2 L 531.8 112.9 L 536.4 234.1 L 541.0 420.8 L 545.7 578.5 L 550.4 643.5 L 555.0 587.1 L 559.7 439.2 L 564.3 266.4 L 569.0 145.5 L 573.6 126.3 L 578.2 223.9 L 582.9 379.7 L 587.5 522.4 L 592.2 601.8 L 596.9 573.0 L 601.5 452.9 L 606.2 316.1 L 610.8 207.0 L 615.5 184.0 L 620.1 237.0 L 624.8 349.9 L 629.4 474.9 L 634.1 537.8 L 638.7 532.1 L 643.4 464.9 L 648.0 351.9 L 652.7 263.4 L 657.3 224.5 L 662.0 258.6 L 666.6 334.1 L 671.2 425.7 L 675.9 498.0 L 680.6 506.9 L 685.2 453.2 L 689.9 370.7 L 694.5 303.2 L 699.2 260.7 L 703.8 270.9 L 708.5 330.6 L 713.1 404.9 L 717.8 465.2 L 722.4 483.6 L 727.1 452.3 L 731.7 393.6 L 736.4 325.1 L 741.0 277.2 L 745.7 285.9 L 750.3 320.9 L 755.0 382.9 L 759.6 445.7 L 764.2 472.8 L 768.9 449.6 L 773.6 405.9 L 778.2 344.9 L 782.9 296.9 L 787.5 284.6 L 792.2 321.8 L 796.8 374.0 L 801.5 428.7 L 806.1 453.2 L 810.8 451.3 L 815.4 406.6 L 820.1 360.4 L 824.7 313.8 L 829.4 294.7 L 834.0 311.6 L 838.7 361.8 L 843.3 414.0 L 848.0 447.3 L 852.6 443.5 L 857.3 418.3 L 861.9 365.5 L 866.6 324.0 L 871.2 313.0 L 875.9 322.7 L 880.5 350.8 L 885.2 394.7 L 889.8 423.4 L 894.5 435.4 L 899.1 418.6 L 903.8 381.0 L 908.4 339.6 L 913.1 326.1 L 917.7 329.0 L 922.4 352.7 L 927.0 386.1 L 931.7 413.5 L 936.3 416.9 L 941.0 414.6 L 945.6 390.2 L 950.3 350.0 L 954.9 332.1 L 959.6 329.9 L 964.2 352.7 L 968.9 371.8 L 973.5 395.0 L 978.2 414.2 L 982.8 402.4 L 987.5 382.9 L 992.1 362.4 L 996.8 347.5 L 1001.4 346.5 L 1006.1 355.8 L 1010.7 375.7 L 1015.4 396.2 L 1020.0 400.6 L 1024.7 402.6 L 1029.3 383.9 L 1034.0 375.9 L 1038.6 351.3 L 1043.2 348.5 L 1047.9 351.2 L 1052.6 364.9 L 1057.2 379.8 L 1061.8 393.8 L 1066.5 401.5 L 1071.2 384.6 L 1075.8 378.3 L 1080.5 364.5 L 1085.1 354.0 L 1089.8 358.2 L 1094.4 369.1 L 1099.1 375.1 L 1103.7 388.4 L 1108.3 394.3 L 1113.0 390.2" fill="none" stroke="#12100E" stroke-width="1.6" stroke-opacity="0.75" stroke-linecap="round" stroke-linejoin="round"/>
  <path d="M 500 120 L 500 630" fill="none" stroke="#FF4B2B" stroke-width="2" stroke-opacity="0.8" stroke-linecap="round" stroke-linejoin="round" stroke-dasharray="8 8"/>
  <circle cx="500.0" cy="375.0" r="10.0" fill="#F4F3F0" stroke="#FF4B2B" stroke-width="2.4" stroke-opacity="1.0"/>
  <path d="M 90 646 L 90 662" fill="none" stroke="#12100E" stroke-width="1.6" stroke-opacity="0.18" stroke-linecap="round" stroke-linejoin="round"/>
  <path d="M 164 646 L 164 662" fill="none" stroke="#12100E" stroke-width="1.6" stroke-opacity="0.18" stroke-linecap="round" stroke-linejoin="round"/>
  <path d="M 238 646 L 238 662" fill="none" stroke="#12100E" stroke-width="1.6" stroke-opacity="0.18" stroke-linecap="round" stroke-linejoin="round"/>
  <path d="M 312 646 L 312 662" fill="none" stroke="#12100E" stroke-width="1.6" stroke-opacity="0.18" stroke-linecap="round" stroke-linejoin="round"/>
  <path d="M 386 646 L 386 662" fill="none" stroke="#12100E" stroke-width="1.6" stroke-opacity="0.18" stroke-linecap="round" stroke-linejoin="round"/>
  <path d="M 460 646 L 460 662" fill="none" stroke="#12100E" stroke-width="1.6" stroke-opacity="0.18" stroke-linecap="round" stroke-linejoin="round"/>
  <path d="M 534 646 L 534 662" fill="none" stroke="#12100E" stroke-width="1.6" stroke-opacity="0.18" stroke-linecap="round" stroke-linejoin="round"/>
  <path d="M 608 646 L 608 662" fill="none" stroke="#12100E" stroke-width="1.6" stroke-opacity="0.18" stroke-linecap="round" stroke-linejoin="round"/>
  <path d="M 682 646 L 682 662" fill="none" stroke="#12100E" stroke-width="1.6" stroke-opacity="0.18" stroke-linecap="round" stroke-linejoin="round"/>
  <path d="M 756 646 L 756 662" fill="none" stroke="#12100E" stroke-width="1.6" stroke-opacity="0.18" stroke-linecap="round" stroke-linejoin="round"/>
  <path d="M 830 646 L 830 662" fill="none" stroke="#12100E" stroke-width="1.6" stroke-opacity="0.18" stroke-linecap="round" stroke-linejoin="round"/>
  <path d="M 904 646 L 904 662" fill="none" stroke="#12100E" stroke-width="1.6" stroke-opacity="0.18" stroke-linecap="round" stroke-linejoin="round"/>
  <path d="M 978 646 L 978 662" fill="none" stroke="#12100E" stroke-width="1.6" stroke-opacity="0.18" stroke-linecap="round" stroke-linejoin="round"/>
  <path d="M 1052 646 L 1052 662" fill="none" stroke="#12100E" stroke-width="1.6" stroke-opacity="0.18" stroke-linecap="round" stroke-linejoin="round"/>
  <path d="M 1126 646 L 1126 662" fill="none" stroke="#12100E" stroke-width="1.6" stroke-opacity="0.18" stroke-linecap="round" stroke-linejoin="round"/>
</svg>
